<svg width="127" height="127" viewBox="0 0 127 127" fill="none" xmlns="http://www.w3.org/2000/svg">
<circle cx="63.5" cy="63.5" r="63.5" fill="white"/>
<g clip-path="url(#clip0_1979_14930)">
<path d="M66.8943 16.1682C65.7173 16 64.5402 16 63.3631 16C62.186 16 61.1771 16 60 16.1682V100.75H91.7812C94.3036 98.9003 96.4896 96.8825 98.3393 94.5283H66.8943V16.1682Z" fill="#009CDD"/>
<path d="M42.3557 59.2143C38.6562 58.7098 38.1518 58.5417 35.4613 58.2054C29.5759 57.3646 27.8943 52.3199 27.8943 49.125C27.8943 45.2574 31.0893 41.2217 36.3021 41.2217H55.4717V35H34.6205C27.558 35 21 41.8943 21 49.125C21 56.1875 24.3631 63.4182 35.2932 64.9315C38.6562 65.2679 38.9926 65.436 42.1875 65.7723C45.8869 66.1086 50.2589 69.4717 50.2589 74.6845C50.2589 79.561 46.8958 83.7649 41.3467 83.7649H21.3363C22.1771 85.9509 23.186 87.9688 24.8676 90.1548H43.1964C50.9315 90.1548 57.1533 84.1012 57.1533 74.8527C57.1533 67.9583 53.9583 60.8958 42.3557 59.2143Z" fill="#009CDD"/>
<path d="M109.507 59.0461H77.8943V41.2217H103.958C102.949 39.0357 101.604 36.8497 99.9226 35H71V90.1548H77.8943V65.2679H109.676C109.844 64.7634 109.844 64.2589 109.844 63.9226C109.844 62.0729 109.676 60.8958 109.507 59.0461Z" fill="#009CDD"/>
<path d="M63.5 7C32.3914 7 7 32.2232 7 63.5C7 94.7768 32.3914 120.168 63.5 120C94.6086 120 120 94.6086 120 63.5C120 32.3914 94.7768 7 63.5 7ZM63.6682 113.946C35.7545 113.946 14.0625 91.4137 14.0625 63.5C14.0625 35.5863 35.9226 13.0536 63.6682 13.0536C91.5818 13.0536 113.274 35.5863 113.274 63.5C113.274 91.4137 91.4137 113.946 63.6682 113.946Z" fill="#009CDD"/>
</g>
<defs>
<clipPath id="clip0_1979_14930">
<rect width="113" height="113" fill="white" transform="translate(7 7)"/>
</clipPath>
</defs>
</svg>
